<svg width="806" height="386" viewBox="0 0 806 386" fill="none" xmlns="http://www.w3.org/2000/svg">
<path d="M596.81 336.411L768.805 69.0398L805 69.304L602.358 385.024L479.769 273.795L480.297 211.708C480.297 211.708 564.313 211.18 566.691 151.999C569.333 113.161 530.495 97.3093 527.061 99.4229L5 99.9513L5.2642 70.0966C5.2642 70.0966 508.44 68.7545 527.589 69.0398C554.273 70.625 596.017 90.9685 599.98 148.564C599.98 169.7 579.637 240.242 493.771 242.356C498.791 252.395 596.81 336.411 596.81 336.411Z" fill="#E7312D"/>
<path d="M38.4127 48.5628C37.0083 50.5745 35.0441 52.0832 32.5201 53.0891C30.015 54.0759 27.0924 54.5693 23.7523 54.5693C20.3742 54.5693 17.3757 53.7818 14.7568 52.2066C12.1378 50.6125 10.1072 48.3541 8.66489 45.4315C7.24155 42.5089 6.5109 39.1214 6.47295 35.2688V31.6536C6.47295 25.4098 7.92476 20.5705 10.8284 17.1355C13.751 13.7005 17.8502 11.983 23.126 11.983C27.453 11.983 30.9354 13.0932 33.5733 15.3136C36.2113 17.5151 37.8244 20.6464 38.4127 24.7077H32.9471C31.9223 19.2231 28.6581 16.4808 23.1545 16.4808C19.4918 16.4808 16.7115 17.7713 14.8137 20.3522C12.9349 22.9143 11.986 26.6339 11.967 31.5112V34.8988C11.967 39.5484 13.0298 43.249 15.1553 46.0008C17.2808 48.7336 20.156 50.1 23.7808 50.1C25.8304 50.1 27.6238 49.8723 29.161 49.4168C30.6982 48.9614 31.9697 48.1928 32.9755 47.111V37.8024H23.3822V33.3616H38.4127V48.5628ZM62.7518 37.2331H53.0162V54H47.5221V12.5523H61.2431C65.9116 12.5523 69.4984 13.6151 72.0035 15.7406C74.5276 17.8661 75.7896 20.9595 75.7896 25.0208C75.7896 27.6018 75.0874 29.8507 73.6831 31.7674C72.2977 33.6842 70.3619 35.117 67.8758 36.0659L77.6115 53.6584V54H71.7473L62.7518 37.2331ZM53.0162 32.7638H61.4139C64.1277 32.7638 66.2817 32.0616 67.8758 30.6572C69.4889 29.2529 70.2955 27.3741 70.2955 25.0208C70.2955 22.4588 69.5269 20.4946 67.9897 19.1282C66.4715 17.7618 64.27 17.0691 61.3854 17.0501H53.0162V32.7638ZM115.358 34.6141C115.358 38.6754 114.675 42.2242 113.309 45.2607C111.942 48.2782 110.007 50.584 107.502 52.1781C104.997 53.7723 102.074 54.5693 98.7338 54.5693C95.4696 54.5693 92.5755 53.7723 90.0515 52.1781C87.5274 50.565 85.5632 48.2782 84.1588 45.3176C82.7735 42.3381 82.0618 38.8936 82.0238 34.9842V31.9952C82.0238 28.0098 82.7165 24.4894 84.1019 21.434C85.4873 18.3785 87.442 16.0443 89.9661 14.4312C92.5091 12.7991 95.4127 11.983 98.6769 11.983C101.998 11.983 104.921 12.7896 107.445 14.4027C109.988 15.9968 111.942 18.3216 113.309 21.3771C114.675 24.4135 115.358 27.9529 115.358 31.9952V34.6141ZM109.921 31.9382C109.921 27.023 108.934 23.2559 106.961 20.6369C104.987 17.999 102.226 16.68 98.6769 16.68C95.2229 16.68 92.4996 17.999 90.5069 20.6369C88.5332 23.2559 87.5179 26.8996 87.461 31.5682V34.6141C87.461 39.3776 88.4573 43.1257 90.45 45.8585C92.4617 48.5723 95.2229 49.9292 98.7338 49.9292C102.264 49.9292 104.997 48.6482 106.932 46.0862C108.868 43.5052 109.864 39.814 109.921 35.0126V31.9382ZM155.411 54H149.917L129.051 22.0603V54H123.557V12.5523H129.051L149.974 44.6344V12.5523H155.411V54ZM165.118 54V12.5523H176.818C180.424 12.5523 183.612 13.3494 186.383 14.9436C189.154 16.5377 191.289 18.8056 192.788 21.7471C194.306 24.6887 195.075 28.0667 195.094 31.8813V34.5287C195.094 38.4382 194.335 41.8637 192.817 44.8052C191.317 47.7468 189.163 50.0052 186.355 51.5803C183.565 53.1555 180.31 53.962 176.591 54H165.118ZM170.584 17.0501V49.5307H176.334C180.547 49.5307 183.821 48.2212 186.155 45.6023C188.509 42.9833 189.685 39.2542 189.685 34.4148V31.9952C189.685 27.2887 188.575 23.6354 186.355 21.0354C184.153 18.4165 181.022 17.0881 176.961 17.0501H170.584ZM213.512 38.5425H199.62V34.244H213.512V38.5425ZM257.379 34.8418H239.417V49.5307H260.283V54H233.951V12.5523H259.998V17.0501H239.417V30.3726H257.379V34.8418ZM298.941 54H293.447L272.581 22.0603V54H267.086V12.5523H272.581L293.504 44.6344V12.5523H298.941V54ZM345.996 43.1826H328.632L324.732 54H319.095L334.923 12.5523H339.705L355.561 54H349.953L345.996 43.1826ZM330.283 38.6849H344.374L337.314 19.299L330.283 38.6849ZM384 35.6958H366.606V54H361.141V12.5523H386.818V17.0501H366.606V31.2266H384V35.6958ZM393.365 54V12.5523H406.915C411.413 12.5523 414.791 13.4823 417.05 15.3421C419.327 17.2019 420.466 19.9537 420.466 23.5975C420.466 25.5332 419.915 27.2507 418.814 28.75C417.714 30.2302 416.215 31.3784 414.317 32.1944C416.556 32.8207 418.321 34.0163 419.612 35.7813C420.921 37.5272 421.576 39.6148 421.576 42.0439C421.576 45.7636 420.371 48.6862 417.96 50.8117C415.55 52.9372 412.144 54 407.741 54H393.365ZM398.831 34.6141V49.5307H407.855C410.398 49.5307 412.4 48.876 413.861 47.5665C415.342 46.2381 416.082 44.4162 416.082 42.1009C416.082 37.1097 413.368 34.6141 407.94 34.6141H398.831ZM398.831 30.2302H407.086C409.477 30.2302 411.385 29.6324 412.808 28.4368C414.25 27.2412 414.971 25.6186 414.971 23.569C414.971 21.2917 414.307 19.6406 412.979 18.6158C411.65 17.572 409.629 17.0501 406.915 17.0501H398.831V30.2302ZM444.89 37.2331H435.154V54H429.66V12.5523H443.381C448.05 12.5523 451.637 13.6151 454.142 15.7406C456.666 17.8661 457.928 20.9595 457.928 25.0208C457.928 27.6018 457.226 29.8507 455.821 31.7674C454.436 33.6842 452.5 35.117 450.014 36.0659L459.75 53.6584V54H453.886L444.89 37.2331ZM435.154 32.7638H443.552C446.266 32.7638 448.42 32.0616 450.014 30.6572C451.627 29.2529 452.434 27.3741 452.434 25.0208C452.434 22.4588 451.665 20.4946 450.128 19.1282C448.61 17.7618 446.408 17.0691 443.524 17.0501H435.154V32.7638ZM488.501 43.1826H471.136L467.237 54H461.6L477.428 12.5523H482.21L498.066 54H492.458L488.501 43.1826ZM472.788 38.6849H486.879L479.819 19.299L472.788 38.6849ZM526.533 43.1826H509.168L505.268 54H499.632L515.459 12.5523H520.242L536.098 54H530.49L526.533 43.1826ZM510.819 38.6849H524.91L517.85 19.299L510.819 38.6849ZM552.21 34.728L547.143 39.9943V54H541.677V12.5523H547.143V33.0484L565.561 12.5523H572.165L555.854 30.8565L573.446 54H566.899L552.21 34.728ZM587.167 40.9337L587.964 46.3994L589.131 41.4746L597.33 12.5523H601.941L609.941 41.4746L611.079 46.4848L611.962 40.9053L618.395 12.5523H623.889L613.841 54H608.859L600.319 23.7967L599.664 20.6369L599.009 23.7967L590.156 54H585.174L575.154 12.5523H580.62L587.167 40.9337ZM653.409 34.8418H635.447V49.5307H656.313V54H629.981V12.5523H656.028V17.0501H635.447V30.3726H653.409V34.8418ZM678.318 37.2331H668.582V54H663.088V12.5523H676.809C681.478 12.5523 685.064 13.6151 687.57 15.7406C690.094 17.8661 691.356 20.9595 691.356 25.0208C691.356 27.6018 690.653 29.8507 689.249 31.7674C687.864 33.6842 685.928 35.117 683.442 36.0659L693.177 53.6584V54H687.313L678.318 37.2331ZM668.582 32.7638H676.98C679.694 32.7638 681.848 32.0616 683.442 30.6572C685.055 29.2529 685.862 27.3741 685.862 25.0208C685.862 22.4588 685.093 20.4946 683.556 19.1282C682.037 17.7618 679.836 17.0691 676.951 17.0501H668.582V32.7638ZM709.574 34.728L704.507 39.9943V54H699.042V12.5523H704.507V33.0484L722.925 12.5523H729.53L713.218 30.8565L730.811 54H724.263L709.574 34.728ZM759.021 34.8418H741.059V49.5307H761.925V54H735.593V12.5523H761.64V17.0501H741.059V30.3726H759.021V34.8418ZM800.583 54H795.089L774.222 22.0603V54H768.728V12.5523H774.222L795.146 44.6344V12.5523H800.583V54Z" fill="black"/>
<path d="M35.0171 159.238H20.5591V188H7.58789V113.352H33.8379C42.4512 113.352 49.0991 115.283 53.7817 119.145C58.4644 123.007 60.8057 128.596 60.8057 135.91C60.8057 140.9 59.5923 145.087 57.1655 148.471C54.7729 151.821 51.4233 154.401 47.1167 156.213L63.8818 187.333V188H49.9878L35.0171 159.238ZM20.5591 148.83H33.8892C38.2642 148.83 41.6821 147.736 44.1431 145.549C46.604 143.327 47.8345 140.302 47.8345 136.474C47.8345 132.475 46.6895 129.382 44.3994 127.194C42.1436 125.007 38.7598 123.879 34.248 123.811H20.5591V148.83ZM127.712 113.352V163.237C127.712 171.167 125.166 177.456 120.073 182.104C115.015 186.718 108.264 189.025 99.8218 189.025C91.2769 189.025 84.4922 186.752 79.4678 182.207C74.4434 177.626 71.9312 171.286 71.9312 163.186V113.352H84.8511V163.288C84.8511 168.278 86.1157 172.089 88.645 174.721C91.1743 177.353 94.8999 178.669 99.8218 178.669C109.802 178.669 114.792 173.405 114.792 162.878V113.352H127.712ZM141.606 188V113.352H163.652C170.249 113.352 176.094 114.821 181.187 117.761C186.313 120.7 190.278 124.87 193.081 130.271C195.884 135.671 197.285 141.857 197.285 148.83V152.573C197.285 159.648 195.867 165.869 193.03 171.235C190.227 176.601 186.211 180.737 180.981 183.642C175.786 186.547 169.822 188 163.088 188H141.606ZM154.578 123.811V177.644H163.037C169.839 177.644 175.051 175.524 178.674 171.286C182.332 167.014 184.194 160.896 184.263 152.932V148.779C184.263 140.678 182.502 134.492 178.982 130.219C175.461 125.947 170.352 123.811 163.652 123.811H154.578ZM223.894 188H210.974V113.352H223.894V188ZM292.288 171.748L311.257 113.352H325.51L298.645 188H286.084L259.321 113.352H273.523L292.288 171.748ZM371.858 170.62H342.942L336.892 188H323.408L351.606 113.352H363.245L391.494 188H377.959L371.858 170.62ZM346.582 160.161H368.218L357.4 129.194L346.582 160.161ZM443.635 154.675H412.976V177.644H448.813V188H400.005V113.352H448.455V123.811H412.976V144.421H443.635V154.675ZM498.391 168.774C498.391 165.493 497.229 162.963 494.905 161.186C492.615 159.409 488.462 157.614 482.446 155.803C476.431 153.991 471.646 151.975 468.091 149.753C461.289 145.48 457.888 139.909 457.888 133.039C457.888 127.023 460.332 122.067 465.22 118.171C470.142 114.274 476.516 112.326 484.343 112.326C489.539 112.326 494.17 113.283 498.237 115.197C502.305 117.111 505.5 119.846 507.825 123.4C510.149 126.921 511.311 130.834 511.311 135.141H498.391C498.391 131.245 497.161 128.203 494.7 126.015C492.273 123.793 488.787 122.683 484.241 122.683C480.002 122.683 476.704 123.588 474.346 125.4C472.021 127.211 470.859 129.741 470.859 132.988C470.859 135.722 472.124 138.012 474.653 139.858C477.183 141.669 481.353 143.447 487.163 145.19C492.974 146.899 497.639 148.864 501.16 151.086C504.68 153.273 507.261 155.803 508.901 158.674C510.542 161.511 511.362 164.843 511.362 168.671C511.362 174.892 508.97 179.848 504.185 183.54C499.434 187.197 492.974 189.025 484.805 189.025C479.404 189.025 474.431 188.034 469.885 186.052C465.374 184.035 461.853 181.267 459.324 177.746C456.829 174.226 455.581 170.124 455.581 165.441H468.552C468.552 169.68 469.954 172.961 472.756 175.285C475.559 177.609 479.575 178.771 484.805 178.771C489.316 178.771 492.7 177.866 494.956 176.054C497.246 174.208 498.391 171.782 498.391 168.774Z" fill="black"/>
</svg>
